<svg width="26" height="26" viewBox="0 0 26 26" fill="none" xmlns="http://www.w3.org/2000/svg">
<circle cx="13" cy="13" r="13" fill="#FFD600"/>
<path d="M12 21C12 21.5523 12.4477 22 13 22C13.5523 22 14 21.5523 14 21L12 21ZM13.7071 5.29289C13.3166 4.90237 12.6834 4.90237 12.2929 5.29289L5.92893 11.6569C5.53841 12.0474 5.53841 12.6805 5.92893 13.0711C6.31946 13.4616 6.95262 13.4616 7.34315 13.0711L13 7.41421L18.6569 13.0711C19.0474 13.4616 19.6805 13.4616 20.0711 13.0711C20.4616 12.6805 20.4616 12.0474 20.0711 11.6569L13.7071 5.29289ZM14 21L14 6L12 6L12 21L14 21Z" fill="white"/>
</svg>
